<?xml version="1.0" encoding="utf-8"?>
<!-- Generator: Adobe Illustrator 24.1.0, SVG Export Plug-In . SVG Version: 6.00 Build 0)  -->
<svg version="1.1" id="Layer_1" xmlns="http://www.w3.org/2000/svg" xmlns:xlink="http://www.w3.org/1999/xlink" x="0px" y="0px"
	 viewBox="0 0 486.7 135.4" style="enable-background:new 0 0 486.7 135.4;" xml:space="preserve">
<style type="text/css">
	.st0{fill:#00E599;}
	.st1{fill:#00AF92;}
	.st2{enable-background:new    ;}
	.st3{fill:#010036;}
</style>
<g id="Layer_2_1_">
	<g id="Layer_1-2">
		<polygon class="st0" points="0,23.7 0,114.3 58.8,135.4 58.8,44.1 122.4,20.7 64.7,0 		"/>
		<polygon class="st1" points="75.5,87 75.5,52.9 122.4,69.7 		"/>
		<polygon class="st1" points="63.6,95.9 63.6,135.3 122.4,113.5 122.4,74.2 		"/>
		<g class="st2">
			<path class="st3" d="M200.8,98.7h-12l-24.1-39.3l-6.1-11.5h-0.1l0.4,10.6v40.3h-9.3V36.3h11.9l24,39.2l6.1,11.6h0.1l-0.4-10.6
				V36.3h9.4V98.7z"/>
		</g>
		<g class="st2">
			<path class="st3" d="M258.1,78.8h-34.6c0.6,4.2,2,7.3,4.4,9.5c2.4,2.2,5.5,3.3,9.3,3.3c3.1,0,5.7-0.6,7.7-1.7
				c2-1.1,3.5-2.7,4.2-4.8l8.4,3.5c-3.5,7.3-10.3,11-20.3,11c-7.4,0-13.3-2.2-17.4-6.5c-4.2-4.3-6.3-10.4-6.3-18.1
				c0-7.8,2-13.8,6.1-18.1c4-4.3,9.7-6.5,17-6.5c6.9,0,12.3,2.1,16.2,6.3c3.8,4.2,5.8,9.8,5.8,16.8
				C258.5,75.5,258.4,77.2,258.1,78.8z M227.7,61.7c-2.2,2.1-3.6,5.3-4.2,9.4h25.5c-0.5-4-1.8-7.1-4-9.3c-2.2-2.2-5-3.3-8.5-3.3
				C232.9,58.5,230,59.6,227.7,61.7z"/>
			<path class="st3" d="M308.3,57c4.2,4.3,6.2,10.4,6.2,18.1c0,7.7-2.1,13.7-6.2,18.1c-4.2,4.3-9.9,6.5-17.3,6.5s-13.1-2.2-17.3-6.5
				c-4.2-4.3-6.2-10.4-6.2-18.1c0-7.7,2.1-13.7,6.2-18.1c4.2-4.3,9.9-6.5,17.3-6.5S304.2,52.6,308.3,57z M281.2,62.7
				c-2.3,2.9-3.5,7-3.5,12.3c0,5.4,1.1,9.5,3.5,12.3c2.3,2.9,5.6,4.3,9.9,4.3c4.3,0,7.6-1.5,9.9-4.4c2.3-2.9,3.5-7,3.5-12.3
				c0-5.3-1.2-9.4-3.5-12.3c-2.3-2.9-5.6-4.3-9.9-4.3C286.8,58.4,283.5,59.9,281.2,62.7z"/>
		</g>
		<g>
			<path class="st0" d="M387.5,67.7v31h-3.8l-0.2-11.1c-1.7,3.8-4.4,6.8-8.1,8.9c-3.7,2.1-8.2,3.1-13.7,3.1c-5.8,0-10.8-1.3-15.1-4
				c-4.3-2.7-7.7-6.5-10-11.4c-2.3-4.9-3.5-10.7-3.5-17.3c0-6.6,1.2-12.4,3.6-17.3c2.4-4.9,5.8-8.7,10.1-11.4c4.4-2.7,9.4-4,15.2-4
				c6.5,0,11.8,1.3,15.9,3.8c4.1,2.6,7.2,6.5,9.2,11.7l-4.4,2.3c-1.5-4.4-4-7.8-7.4-10c-3.5-2.3-7.9-3.4-13.2-3.4
				c-4.7,0-8.9,1.1-12.5,3.4c-3.6,2.3-6.4,5.5-8.4,9.8c-2,4.3-3,9.3-3,15c0,8.8,2.1,15.7,6.3,20.7c4.2,5,10,7.5,17.4,7.5
				c4.6,0,8.5-0.9,11.7-2.7c3.2-1.8,5.6-4.2,7.1-7.2c1.5-3,2.3-6.2,2.3-9.6v-3.6h-21.5v-4.5H387.5z"/>
			<path class="st0" d="M452.7,75.5c0,7.8-2.1,13.8-6.3,17.9c-4.2,4.1-10.2,6.2-18.1,6.2c-7.8,0-13.9-2.1-18.1-6.2
				c-4.3-4.1-6.4-10.1-6.4-17.9V35.3h4.8v39.3c0,6.8,1.7,11.9,5,15.4c3.3,3.5,8.2,5.2,14.7,5.2c6.4,0,11.3-1.7,14.6-5.2
				c3.3-3.5,5-8.6,5-15.4V35.3h4.8V75.5z"/>
			<path class="st0" d="M476.7,98.7h-4.8V35.3h4.8V98.7z"/>
		</g>
	</g>
</g>
</svg>
